# xmcd
#
# Track frame offsets:
#	150
#	18110
#	31324
#	47470
#	64514
#	79852
#	96600
#	112761
#	128333
#	147540
#	162141
#	177509
#	192537
#	210454
#	228052
#	245012
#	259748
#	276756
#	294272
#	311555
#
# Disc length: 4408 seconds
#
# Revision: 1
# Processed by: cddbd v1.5.2PL0 Copyright (c) Steve Scherf et al.
# Submitted via: audiograbber 1.81.03
#
DISCID=0f113614
DTITLE=Esko-Pekka Tiitinen - Prinsessa Ryysynen
DYEAR=2007
DGENRE=Speech
TTITLE0=Norsu joka istui maassa torkkuen
TTITLE1=Kaksikymmentä pallo jätskiä
TTITLE2=Luontokenkä
TTITLE3=Rekka-auton papukaija
TTITLE4=Museon mammutti
TTITLE5=Hengenpelastaja
TTITLE6=Kassajonon kauhistus
TTITLE7=Halauskaipaus
TTITLE8=Musta ooppera
TTITLE9=Pakko halata että saisi joulukalenterin
TTITLE10=YUP:n konsertti
TTITLE11=Soutulaitteen tuska
TTITLE12=Eläintarhan leijona
TTITLE13=Häiriintynyt puutarhatonttu
TTITLE14=Maidonlypsäntä
TTITLE15=Isä, joka on korvalappustereo
TTITLE16=Prinsessakirjalinna
TTITLE17=Laulava bussikuski
TTITLE18=Pahuksen mattopyykki
TTITLE19=Isä,joka on sittenkin ihminen
EXTD=
EXTT0=
EXTT1=
EXTT2=
EXTT3=
EXTT4=
EXTT5=
EXTT6=
EXTT7=
EXTT8=
EXTT9=
EXTT10=
EXTT11=
EXTT12=
EXTT13=
EXTT14=
EXTT15=
EXTT16=
EXTT17=
EXTT18=
EXTT19=
PLAYORDER=
